<mxfile host="65bd71144e">
    <diagram id="5AwTB88mY7CUjfF6US13" name="PÃ¡gina-1">
        <mxGraphModel dx="985" dy="516" grid="1" gridSize="10" guides="1" tooltips="1" connect="1" arrows="1" fold="1" page="1" pageScale="1" pageWidth="827" pageHeight="1169" math="0" shadow="0">
            <root>
                <mxCell id="0"/>
                <mxCell id="1" parent="0"/>
                <mxCell id="20" value="" style="rounded=0;whiteSpace=wrap;html=1;fillColor=#fff2cc;strokeColor=#d6b656;" parent="1" vertex="1">
                    <mxGeometry x="20.5" y="500" width="790" height="300" as="geometry"/>
                </mxCell>
                <mxCell id="4" value="" style="rounded=0;whiteSpace=wrap;html=1;fillColor=#f8cecc;strokeColor=#b85450;" parent="1" vertex="1">
                    <mxGeometry x="20" y="220" width="790" height="280" as="geometry"/>
                </mxCell>
                <mxCell id="12" value="" style="edgeStyle=none;html=1;fontFamily=Times New Roman;fontSize=13;fontColor=#030303;strokeWidth=2;endArrow=open;endFill=0;strokeColor=#030303;" parent="1" source="2" target="7" edge="1">
                    <mxGeometry relative="1" as="geometry"/>
                </mxCell>
                <mxCell id="30" style="edgeStyle=none;html=1;entryX=0.5;entryY=0;entryDx=0;entryDy=0;fontFamily=Times New Roman;fontSize=13;fontColor=#030303;endArrow=open;endFill=0;strokeColor=#030303;strokeWidth=2;" parent="1" source="2" target="22" edge="1">
                    <mxGeometry relative="1" as="geometry"/>
                </mxCell>
                <mxCell id="2" value="RegisterUserOnMailingList" style="rounded=1;whiteSpace=wrap;html=1;fillColor=#f5f5f5;strokeColor=#666666;fontColor=#333333;" parent="1" vertex="1">
                    <mxGeometry x="100" y="318" width="180" height="60" as="geometry"/>
                </mxCell>
                <mxCell id="5" value="Use Cases" style="text;html=1;strokeColor=none;fillColor=none;align=center;verticalAlign=middle;whiteSpace=wrap;rounded=0;fontColor=#030303;fontSize=22;" parent="1" vertex="1">
                    <mxGeometry x="30" y="268" width="110" height="20" as="geometry"/>
                </mxCell>
                <mxCell id="6" value="" style="shape=image;verticalLabelPosition=bottom;labelBackgroundColor=#ffffff;verticalAlign=top;aspect=fixed;imageAspect=0;image=https://miro.medium.com/max/800/1*0R0r00uF1RyRFxkxo3HVDg.png;" parent="1" vertex="1">
                    <mxGeometry x="10" y="10" width="308.66" height="222" as="geometry"/>
                </mxCell>
                <mxCell id="15" value="" style="group" parent="1" vertex="1" connectable="0">
                    <mxGeometry x="348" y="318" width="135" height="60" as="geometry"/>
                </mxCell>
                <mxCell id="7" value="UserRepository" style="rounded=1;whiteSpace=wrap;html=1;fillColor=#f5f5f5;strokeColor=#666666;fontColor=#333333;" parent="15" vertex="1">
                    <mxGeometry width="135" height="60" as="geometry"/>
                </mxCell>
                <mxCell id="9" value="&amp;lt;I&amp;gt;" style="text;html=1;strokeColor=none;fillColor=none;align=center;verticalAlign=middle;whiteSpace=wrap;rounded=0;fontSize=13;fontColor=#030303;fontFamily=Times New Roman;" parent="15" vertex="1">
                    <mxGeometry x="105" y="3" width="30" height="12" as="geometry"/>
                </mxCell>
                <mxCell id="19" style="edgeStyle=none;html=1;fontFamily=Times New Roman;fontSize=13;fontColor=#030303;endArrow=open;endFill=0;strokeColor=#030303;strokeWidth=2;" parent="1" source="18" target="7" edge="1">
                    <mxGeometry relative="1" as="geometry"/>
                </mxCell>
                <mxCell id="18" value="InMemoryUserRepository" style="rounded=1;whiteSpace=wrap;html=1;fillColor=#f5f5f5;strokeColor=#666666;fontColor=#333333;" parent="1" vertex="1">
                    <mxGeometry x="325" y="231" width="180" height="57" as="geometry"/>
                </mxCell>
                <mxCell id="21" value="Entities" style="text;html=1;strokeColor=none;fillColor=none;align=center;verticalAlign=middle;whiteSpace=wrap;rounded=0;fontColor=#030303;fontSize=22;" parent="1" vertex="1">
                    <mxGeometry x="30.5" y="510" width="110" height="20" as="geometry"/>
                </mxCell>
                <mxCell id="28" value="" style="edgeStyle=none;html=1;fontFamily=Times New Roman;fontSize=13;fontColor=#030303;endArrow=open;endFill=0;strokeColor=#030303;strokeWidth=2;entryX=0.5;entryY=0;entryDx=0;entryDy=0;" parent="1" source="22" target="24" edge="1">
                    <mxGeometry relative="1" as="geometry"/>
                </mxCell>
                <mxCell id="29" style="edgeStyle=none;html=1;entryX=0.5;entryY=0;entryDx=0;entryDy=0;fontFamily=Times New Roman;fontSize=13;fontColor=#030303;endArrow=open;endFill=0;strokeColor=#030303;strokeWidth=2;" parent="1" source="22" target="23" edge="1">
                    <mxGeometry relative="1" as="geometry"/>
                </mxCell>
                <mxCell id="22" value="User" style="rounded=1;whiteSpace=wrap;html=1;fillColor=#f5f5f5;strokeColor=#666666;fontColor=#333333;" parent="1" vertex="1">
                    <mxGeometry x="150" y="530" width="80" height="60" as="geometry"/>
                </mxCell>
                <mxCell id="23" value="Email" style="rounded=1;whiteSpace=wrap;html=1;fillColor=#f5f5f5;strokeColor=#666666;fontColor=#333333;" parent="1" vertex="1">
                    <mxGeometry x="104.33" y="620" width="80" height="60" as="geometry"/>
                </mxCell>
                <mxCell id="24" value="Name" style="rounded=1;whiteSpace=wrap;html=1;fillColor=#f5f5f5;strokeColor=#666666;fontColor=#333333;" parent="1" vertex="1">
                    <mxGeometry x="203" y="620" width="80" height="60" as="geometry"/>
                </mxCell>
                <mxCell id="37" value="" style="edgeStyle=none;html=1;fontFamily=Times New Roman;fontSize=13;fontColor=#030303;strokeWidth=2;endArrow=open;endFill=0;strokeColor=#030303;entryX=1;entryY=0.5;entryDx=0;entryDy=0;exitX=0.5;exitY=1;exitDx=0;exitDy=0;" edge="1" parent="1" source="7" target="41">
                    <mxGeometry relative="1" as="geometry">
                        <mxPoint x="306" y="358" as="sourcePoint"/>
                        <mxPoint x="450" y="700" as="targetPoint"/>
                    </mxGeometry>
                </mxCell>
                <mxCell id="40" value="" style="group" vertex="1" connectable="0" parent="1">
                    <mxGeometry x="128" y="700" width="135" height="94" as="geometry"/>
                </mxCell>
                <mxCell id="45" value="" style="group" vertex="1" connectable="0" parent="40">
                    <mxGeometry y="34" width="135" height="60" as="geometry"/>
                </mxCell>
                <mxCell id="41" value="UserData" style="rounded=1;whiteSpace=wrap;html=1;fillColor=#f5f5f5;strokeColor=#666666;fontColor=#333333;" vertex="1" parent="45">
                    <mxGeometry width="135" height="60" as="geometry"/>
                </mxCell>
                <mxCell id="42" value="&amp;lt;I&amp;gt;" style="text;html=1;strokeColor=none;fillColor=none;align=center;verticalAlign=middle;whiteSpace=wrap;rounded=0;fontSize=13;fontColor=#030303;fontFamily=Times New Roman;" vertex="1" parent="45">
                    <mxGeometry x="101" y="3" width="30" height="12" as="geometry"/>
                </mxCell>
                <mxCell id="43" style="edgeStyle=none;html=1;fontFamily=Times New Roman;fontSize=13;fontColor=#030303;endArrow=open;endFill=0;strokeColor=#030303;strokeWidth=2;" edge="1" parent="1" source="22" target="41">
                    <mxGeometry relative="1" as="geometry">
                        <mxPoint x="200" y="630" as="sourcePoint"/>
                        <mxPoint x="200" y="670" as="targetPoint"/>
                    </mxGeometry>
                </mxCell>
                <mxCell id="44" value="" style="edgeStyle=none;html=1;fontFamily=Times New Roman;fontSize=13;fontColor=#030303;endArrow=open;endFill=0;strokeColor=#030303;strokeWidth=2;exitX=0.5;exitY=1;exitDx=0;exitDy=0;" edge="1" parent="1" source="24" target="41">
                    <mxGeometry relative="1" as="geometry">
                        <mxPoint x="235" y="600" as="sourcePoint"/>
                        <mxPoint x="190" y="740" as="targetPoint"/>
                    </mxGeometry>
                </mxCell>
                <mxCell id="46" value="" style="edgeStyle=none;html=1;fontFamily=Times New Roman;fontSize=13;fontColor=#030303;endArrow=open;endFill=0;strokeColor=#030303;strokeWidth=2;exitX=0.5;exitY=1;exitDx=0;exitDy=0;entryX=0.25;entryY=0;entryDx=0;entryDy=0;" edge="1" parent="1" source="23" target="41">
                    <mxGeometry relative="1" as="geometry">
                        <mxPoint x="270" y="690" as="sourcePoint"/>
                        <mxPoint x="227.8928571428571" y="744" as="targetPoint"/>
                    </mxGeometry>
                </mxCell>
            </root>
        </mxGraphModel>
    </diagram>
</mxfile>